<?xml version="1.0" standalone="no"?>
<!DOCTYPE svg PUBLIC "-//W3C//DTD SVG 20010904//EN"
 "http://www.w3.org/TR/2001/REC-SVG-20010904/DTD/svg10.dtd">
<svg version="1.0" xmlns="http://www.w3.org/2000/svg"
 width="570.000000pt" height="498.000000pt" viewBox="0 0 570.000000 498.000000"
 preserveAspectRatio="xMidYMid meet">

<g transform="translate(0.000000,498.000000) scale(0.100000,-0.100000)">
<path d="M66 4966 c12 -9 46 -14 89 -15 87 0 119 -10 189 -56 109 -72 198
-225 162 -277 -11 -16 -13 -25 -5 -35 9 -10 20 -6 53 20 76 60 111 72 203 72
49 -1 87 -5 91 -12 4 -5 17 -13 30 -17 63 -20 152 -153 152 -230 0 -44 -45
-130 -85 -163 -35 -30 -40 -53 -10 -53 41 0 125 119 125 177 0 49 213 58 303
13 63 -31 142 -113 172 -177 32 -66 34 -160 6 -227 -23 -52 -93 -125 -145
-150 -38 -18 -40 -36 -5 -36 30 0 59 17 111 67 45 44 68 49 68 15 0 -38 55
-120 122 -184 l71 -66 -15 -34 c-9 -18 -19 -50 -22 -70 -6 -33 -4 -38 13 -38
30 0 61 47 61 91 0 44 -3 43 90 28 61 -10 75 -17 122 -59 32 -28 65 -71 83
-106 27 -53 29 -66 27 -149 -1 -49 -3 -103 -4 -119 -2 -16 2 -31 10 -33 7 -3
12 4 12 16 0 11 4 23 10 26 5 3 10 19 10 36 0 30 17 38 37 18 20 -20 92 -14
116 9 11 12 19 24 16 27 -3 3 -35 8 -70 11 -35 4 -69 11 -76 16 -7 5 -15 31
-19 56 -8 56 -63 165 -107 209 -17 18 -29 34 -26 36 2 1 27 13 56 26 29 13 67
39 85 58 90 93 243 42 256 -85 4 -44 1 -52 -28 -85 -26 -31 -39 -37 -70 -37
-58 0 -70 8 -70 46 0 34 -10 41 -44 28 -23 -9 -20 -47 7 -72 12 -12 42 -28 65
-36 39 -14 46 -14 86 3 55 24 88 70 94 131 10 104 -85 200 -199 200 l-26 0 13
52 c29 112 8 205 -64 277 -39 39 -59 50 -114 64 -37 9 -76 17 -86 17 -31 0
-47 46 -47 134 0 99 30 170 102 248 72 76 130 103 228 103 85 -1 124 -16 188
-74 85 -77 108 -202 54 -294 -70 -118 -203 -142 -293 -52 -39 40 -44 49 -44
90 0 53 19 95 56 124 29 22 83 28 114 11 16 -8 17 -14 7 -39 -11 -31 2 -61 28
-61 22 0 47 37 43 66 -5 40 -47 67 -116 72 -96 7 -156 -39 -168 -130 -17 -124
71 -217 211 -223 37 -1 40 -3 40 -31 1 -32 18 -79 33 -88 13 -8 21 39 11 56
-19 29 -9 66 22 89 67 50 119 125 119 169 0 9 9 25 21 36 18 16 37 19 128 19
92 0 112 -4 151 -24 68 -35 124 -85 160 -141 28 -43 33 -63 39 -136 4 -47 4
-87 0 -90 -3 -2 -9 -16 -12 -32 -8 -40 -89 -126 -143 -152 -36 -18 -58 -21
-114 -18 -59 3 -74 8 -107 34 -64 52 -83 88 -83 161 0 74 15 108 62 143 26 20
44 25 87 24 50 0 56 -3 92 -42 40 -43 50 -83 29 -122 -8 -15 -18 -17 -51 -13
-40 6 -41 5 -37 -22 4 -35 27 -50 62 -41 66 16 90 147 40 214 -29 37 -93 71
-136 72 -36 0 -109 -33 -134 -61 -35 -39 -59 -101 -59 -154 l0 -50 -33 3 c-32
3 -82 -19 -82 -37 0 -17 45 -20 67 -5 21 13 26 13 53 -1 17 -9 30 -19 30 -24
0 -5 18 -26 39 -48 46 -45 100 -65 181 -65 85 0 138 20 194 74 45 43 50 46 62
30 7 -9 15 -29 18 -43 7 -35 88 -141 129 -169 54 -37 60 -54 37 -92 -11 -18
-20 -43 -20 -55 0 -12 -5 -23 -12 -25 -19 -7 1 -27 21 -21 36 9 66 51 66 94 0
21 3 39 7 39 4 0 40 -6 80 -12 64 -11 77 -18 123 -60 30 -27 65 -73 81 -105
26 -52 29 -66 28 -157 0 -88 -3 -106 -24 -141 -62 -106 -142 -156 -250 -158
-197 -3 -312 207 -190 345 94 107 244 74 266 -59 11 -69 -37 -143 -93 -143
-16 0 -23 6 -23 19 0 25 -14 34 -40 26 -25 -8 -26 -46 -2 -68 12 -11 36 -17
63 -17 38 0 50 5 76 33 44 46 53 69 53 132 0 110 -64 175 -172 175 -71 0 -134
-32 -173 -88 -24 -35 -30 -55 -33 -110 -6 -97 10 -145 67 -202 72 -72 168 -95
288 -70 101 22 204 135 218 241 6 46 24 64 40 40 12 -20 64 -22 100 -6 37 18
47 44 18 46 -65 3 -119 11 -127 19 -5 5 -18 42 -28 81 -18 74 -58 147 -103
189 -14 13 -25 26 -25 30 0 4 18 12 40 19 22 6 67 34 100 61 54 46 63 50 112
50 112 0 185 -95 142 -185 -22 -47 -50 -65 -100 -65 -43 0 -68 17 -59 41 7 21
-10 41 -31 37 -26 -4 -31 -54 -9 -78 10 -11 39 -26 65 -35 39 -13 53 -14 76
-3 62 26 114 96 114 152 0 26 -45 119 -65 136 -20 16 -116 50 -143 50 -19 0
-23 4 -17 18 14 33 17 167 5 211 -8 31 -27 60 -64 97 -56 55 -99 74 -172 74
-62 0 -69 15 -69 139 0 102 1 109 34 169 38 71 103 133 171 166 34 16 63 21
120 21 67 -1 81 -4 129 -34 123 -74 173 -204 122 -317 -23 -50 -93 -112 -138
-120 -50 -9 -109 1 -138 24 -52 41 -70 74 -70 128 0 90 69 150 150 130 22 -6
25 -12 25 -52 0 -31 5 -46 15 -51 20 -7 55 24 55 49 0 54 -52 88 -131 88 -64
0 -122 -35 -138 -82 -15 -43 -14 -122 3 -162 27 -64 116 -116 200 -116 35 0
36 -1 36 -39 0 -23 8 -48 19 -62 18 -22 20 -23 27 -6 4 10 1 36 -6 56 -12 39
-2 81 20 81 35 0 130 133 130 184 0 27 51 41 149 41 86 0 102 -3 151 -29 231
-119 267 -394 70 -531 -35 -24 -55 -30 -111 -33 -86 -5 -147 22 -195 88 -29
39 -34 53 -34 103 0 83 36 141 103 166 73 28 177 -32 177 -100 0 -66 -7 -76
-53 -75 -32 1 -42 -3 -45 -17 -8 -40 51 -63 89 -34 22 17 49 82 49 118 0 40
-26 89 -63 119 -27 21 -41 25 -102 25 -60 0 -77 -4 -108 -25 -49 -33 -79 -91
-86 -164 l-6 -60 -38 -2 c-46 -1 -81 -29 -57 -44 8 -5 22 -7 30 -3 8 3 29 8
45 10 27 4 36 -2 74 -47 107 -127 288 -133 402 -15 45 47 59 54 59 32 0 -19
38 -95 72 -144 16 -23 48 -56 72 -72 47 -33 63 -58 46 -75 -5 -5 -10 -18 -10
-28 0 -10 -5 -18 -11 -18 -6 0 -8 -8 -4 -19 3 -11 1 -22 -5 -26 -15 -9 -12
-35 4 -35 8 0 28 13 45 29 25 23 31 37 31 70 0 23 3 41 8 41 4 0 39 -6 78 -14
103 -19 163 -69 215 -182 35 -74 34 -189 -4 -267 -33 -70 -76 -116 -137 -148
-66 -34 -177 -32 -241 5 -141 80 -154 276 -25 356 39 23 103 29 146 12 80 -31
102 -161 39 -228 -29 -31 -79 -33 -79 -4 0 25 -25 36 -45 20 -40 -33 -1 -80
68 -80 126 0 183 188 87 288 -49 52 -142 66 -215 33 -93 -42 -140 -147 -117
-259 27 -128 125 -202 268 -202 152 0 281 109 308 263 7 39 14 45 34 25 19
-19 97 -15 121 6 22 20 19 38 -7 35 -10 -1 -19 0 -22 1 -3 1 -25 4 -49 6 -58
5 -67 15 -74 76 -8 61 -46 140 -93 188 -19 20 -34 41 -34 46 0 6 17 16 38 22
21 7 64 34 96 62 53 46 61 50 109 50 128 0 203 -130 125 -216 -27 -29 -40 -35
-75 -36 -53 0 -63 6 -63 43 0 36 -25 49 -48 26 -27 -27 -5 -68 51 -96 61 -30
104 -23 156 27 94 90 46 242 -89 286 -27 9 -59 16 -70 16 -17 0 -20 4 -15 18
5 9 12 40 18 68 31 158 -71 297 -230 312 l-68 7 -13 50 c-18 67 -8 176 21 234
31 64 106 142 169 176 44 25 64 30 123 30 82 0 131 -19 189 -74 68 -64 90
-107 90 -181 0 -121 -79 -210 -192 -218 -49 -3 -63 0 -99 24 -58 38 -77 77
-71 144 5 46 11 59 42 87 36 33 65 40 114 26 21 -5 23 -10 18 -38 -8 -40 1
-65 23 -65 47 0 57 72 15 111 -22 21 -35 24 -99 24 -67 0 -76 -3 -102 -27 -16
-15 -37 -51 -47 -80 -17 -52 -17 -54 3 -109 12 -31 31 -65 44 -76 38 -35 108
-63 158 -63 l46 0 -1 -39 c0 -26 6 -47 19 -61 l19 -21 8 22 c5 13 4 27 -2 33
-5 5 -10 24 -10 41 0 32 23 61 66 84 28 14 70 86 79 133 5 24 15 39 31 47 31
14 32 41 1 41 -21 0 -25 7 -36 55 -16 73 -82 147 -166 186 -82 39 -185 41
-263 4 -30 -14 -57 -25 -62 -25 -4 0 -10 18 -14 39 -3 22 -15 55 -26 74 l-20
33 43 24 c88 49 187 124 187 142 0 18 -56 -7 -132 -58 -105 -71 -121 -75 -161
-36 -18 17 -61 47 -95 67 l-64 37 -116 -4 c-134 -4 -166 -15 -234 -82 -81 -81
-113 -190 -89 -308 21 -100 137 -198 234 -198 140 0 236 90 237 221 0 46 -5
62 -27 92 -41 53 -90 77 -158 77 -89 0 -155 -49 -155 -115 0 -42 20 -68 51
-63 18 2 25 10 27 31 3 22 -1 27 -17 27 -38 0 -21 39 31 73 36 22 80 22 127
-3 65 -33 84 -65 79 -136 -4 -71 -28 -107 -91 -141 -42 -23 -88 -28 -146 -17
-40 8 -116 75 -141 125 -44 85 -15 208 69 295 163 170 405 106 535 -140 30
-57 33 -88 9 -107 -37 -31 -90 -128 -108 -201 -18 -74 -15 -135 10 -214 6 -18
-2 -27 -51 -58 -79 -49 -117 -49 -174 2 -39 35 -43 42 -43 85 0 41 4 51 33 77
50 45 100 39 100 -11 0 -24 4 -29 25 -29 21 0 25 5 25 29 0 41 -40 71 -96 71
-36 0 -49 -6 -79 -35 -32 -33 -35 -41 -35 -94 0 -44 6 -66 23 -91 26 -40 80
-70 123 -70 42 0 45 -5 29 -56 -31 -105 60 -214 179 -214 96 0 148 42 139 113
-6 58 -41 76 -67 34 -9 -15 -7 -21 14 -36 28 -22 21 -37 -33 -66 -49 -26 -97
-14 -152 39 -41 39 -45 47 -45 92 0 113 113 196 224 165 56 -15 100 -49 137
-105 30 -45 34 -59 34 -116 0 -109 -60 -202 -165 -255 -39 -20 -64 -25 -122
-25 -124 0 -229 55 -298 155 -39 57 -76 198 -61 232 14 30 14 130 1 138 -5 3
-10 14 -10 24 0 28 -48 112 -87 153 -82 84 -231 131 -349 109 -32 -6 -63 -11
-69 -11 -6 0 -19 27 -29 61 -20 70 -83 143 -156 181 -38 20 -60 23 -145 23
-84 0 -107 -4 -143 -22 -23 -13 -44 -23 -46 -23 -2 0 -9 21 -15 48 -7 26 -19
57 -27 70 -12 18 -13 26 -3 38 6 8 16 14 22 14 18 0 131 78 167 115 34 35 34
35 9 35 -23 0 -109 -53 -117 -72 -2 -5 -9 -8 -17 -8 -7 0 -18 -7 -25 -14 -6
-8 -27 -20 -46 -26 -32 -11 -36 -9 -81 28 -27 22 -70 52 -98 67 -47 26 -54 27
-170 23 -105 -3 -125 -6 -160 -27 -66 -40 -106 -83 -136 -146 -25 -51 -29 -72
-29 -140 0 -67 4 -88 26 -130 36 -68 49 -81 110 -111 61 -30 158 -35 215 -11
107 44 158 171 110 271 -30 62 -89 96 -166 96 -63 0 -118 -21 -140 -54 -15
-21 -20 -81 -9 -110 9 -24 61 -21 69 4 8 24 -1 40 -21 40 -27 0 -11 43 25 67
42 28 90 29 142 3 102 -53 105 -184 6 -264 -35 -28 -45 -31 -110 -31 -61 0
-78 5 -113 27 -55 35 -80 69 -101 134 -14 46 -15 61 -4 106 22 95 86 175 179
223 48 25 60 27 130 23 97 -7 163 -39 234 -117 49 -53 108 -158 108 -192 0 -8
-16 -31 -36 -50 -87 -84 -127 -267 -83 -385 10 -27 4 -34 -59 -72 -60 -37 -98
-40 -143 -13 -63 39 -85 102 -54 161 18 35 43 50 84 50 32 0 45 -13 46 -45 0
-29 39 -27 43 2 5 38 -39 73 -91 73 -109 0 -165 -125 -97 -218 35 -48 75 -72
123 -72 l34 0 -5 -75 c-4 -70 -3 -78 23 -115 84 -121 306 -98 305 32 -1 46
-41 73 -68 46 -17 -17 -15 -48 3 -48 24 0 17 -27 -12 -49 -42 -34 -69 -36
-125 -10 -57 27 -98 78 -98 123 0 42 39 113 79 144 31 23 45 27 103 27 58 0
72 -4 109 -30 23 -16 56 -47 73 -68 29 -36 31 -44 31 -120 0 -95 -17 -140 -74
-200 -55 -59 -121 -87 -204 -87 -126 0 -235 59 -306 167 -44 66 -53 111 -52
246 1 109 -1 121 -27 180 -47 102 -133 177 -243 211 -53 17 -107 18 -234 4
-26 -3 -30 1 -33 22 -5 45 -54 130 -94 165 -71 60 -101 70 -218 70 -92 0 -109
-3 -142 -23 -21 -13 -42 -21 -47 -18 -5 3 -12 23 -16 43 -3 21 -15 53 -25 70
l-19 33 42 21 c51 27 156 100 181 128 19 21 19 21 -8 21 -15 0 -49 -16 -79
-38 -62 -46 -140 -92 -154 -92 -6 0 -28 16 -49 36 -22 19 -63 48 -93 65 -51
27 -62 29 -166 29 -105 0 -116 -2 -173 -31 -34 -17 -75 -47 -92 -67 -41 -50
-80 -156 -80 -219 0 -99 60 -197 146 -239 47 -23 63 -26 132 -23 74 4 82 6
124 41 63 52 81 94 76 179 -3 59 -8 73 -33 100 -40 43 -83 59 -153 59 -100 0
-165 -62 -146 -139 7 -27 15 -37 33 -39 15 -3 30 3 37 13 15 20 8 45 -11 45
-39 0 -26 42 22 71 86 54 223 -19 223 -119 0 -48 -43 -123 -87 -152 -30 -20
-51 -25 -103 -25 -56 0 -71 4 -110 30 -24 17 -58 50 -75 73 -27 39 -30 52 -30
115 0 56 5 82 24 120 28 54 78 107 136 146 36 23 50 26 131 26 77 0 98 -4 139
-25 95 -48 215 -199 215 -269 0 -12 -18 -43 -39 -69 -66 -79 -85 -133 -85
-242 -1 -52 2 -111 7 -131 7 -35 7 -36 -50 -72 -64 -41 -94 -45 -142 -21 -75
37 -94 143 -34 191 48 39 103 26 103 -24 0 -34 38 -31 46 4 10 40 -32 73 -95
73 -62 0 -94 -25 -116 -89 -15 -45 -15 -50 4 -93 23 -55 76 -98 129 -105 l39
-5 -1 -77 c-1 -66 2 -80 24 -109 36 -48 100 -82 155 -82 53 0 109 23 130 54
15 21 20 72 9 100 -8 20 -47 21 -63 2 -14 -16 -4 -46 15 -46 37 0 0 -47 -50
-64 -52 -18 -99 -3 -148 46 -33 33 -38 44 -38 83 0 56 18 92 64 133 107 93
292 18 326 -133 11 -50 1 -136 -21 -177 -23 -43 -111 -127 -140 -133 -16 -4
-31 -11 -34 -16 -12 -18 -145 -10 -208 13 -77 28 -158 102 -200 182 -30 59
-31 65 -32 201 -1 162 -13 197 -91 284 -86 95 -181 135 -307 128 -45 -2 -94
-8 -109 -12 -25 -6 -28 -5 -28 16 0 67 -84 180 -162 220 -78 40 -221 40 -297
1 -41 -21 -51 -20 -51 8 0 9 -11 38 -24 66 -23 48 -21 74 7 74 15 0 142 89
173 121 l28 29 -27 0 c-16 0 -50 -17 -85 -44 -31 -24 -76 -54 -100 -66 l-42
-22 -49 41 c-27 23 -52 41 -55 41 -4 0 -24 11 -46 25 -37 23 -49 25 -162 25
-108 0 -120 -2 -102 -14z"/>
<path d="M810 4958 c0 -32 43 -118 76 -152 79 -83 253 -96 364 -28 54 33 102
94 123 156 15 44 15 46 -3 46 -12 0 -22 -11 -30 -34 -14 -43 -72 -111 -124
-144 -60 -38 -176 -44 -240 -12 -25 13 -57 35 -71 50 -27 28 -68 123 -58 134
4 3 -3 6 -15 6 -16 0 -22 -6 -22 -22z"/>
<path d="M1119 4940 c-42 -47 -69 -52 -69 -15 0 29 -25 43 -49 28 -44 -28 -6
-83 58 -83 32 0 46 7 80 40 40 39 53 70 29 70 -7 -1 -29 -19 -49 -40z"/>
<path d="M2340 4946 c0 -52 15 -82 67 -134 55 -55 122 -82 205 -82 58 0 146
29 189 63 33 25 93 119 103 160 12 49 -21 31 -49 -28 -49 -100 -141 -158 -248
-156 -73 1 -91 6 -142 41 -42 29 -95 112 -95 149 0 12 -6 21 -15 21 -10 0 -15
-10 -15 -34z"/>
<path d="M2654 4951 c-20 -34 -60 -59 -73 -45 -5 5 -11 18 -13 29 -4 25 -46
27 -62 3 -18 -29 28 -68 79 -68 34 0 48 6 77 36 20 19 38 44 41 55 8 31 -29
23 -49 -10z"/>
<path d="M3860 4964 c0 -86 76 -187 164 -217 153 -52 323 17 387 157 10 23 19
49 19 59 0 33 -25 17 -48 -30 -42 -91 -110 -146 -200 -163 -135 -25 -261 53
-287 178 -7 32 -35 46 -35 16z"/>
<path d="M4168 4939 c-40 -45 -71 -49 -76 -11 -4 28 -27 39 -47 22 -39 -32 2
-80 69 -80 33 0 45 7 78 40 38 41 49 70 26 70 -7 0 -29 -19 -50 -41z"/>
<path d="M5388 4975 c-10 -10 12 -97 33 -131 39 -63 123 -110 206 -115 42 -3
48 -1 48 16 0 13 -6 19 -15 17 -8 -2 -43 4 -78 13 -52 15 -69 25 -107 67 -29
33 -47 63 -52 90 -8 39 -22 56 -35 43z"/>
<path d="M5566 4944 c-21 -20 -20 -30 4 -54 14 -14 33 -20 65 -20 38 0 45 3
45 20 0 16 -5 19 -30 14 -25 -6 -30 -3 -30 13 0 19 -17 43 -31 43 -4 0 -15 -7
-23 -16z"/>
<path d="M693 4504 c-26 -15 -43 -32 -43 -44 0 -33 21 -33 50 -1 29 32 64 39
117 25 20 -6 22 -11 17 -43 -8 -49 16 -73 46 -46 41 37 17 93 -53 123 -44 19
-88 14 -134 -14z"/>
<path d="M1165 4211 c-62 -28 -119 -117 -90 -141 12 -10 17 -7 26 16 37 100
155 132 234 63 38 -34 51 -73 35 -113 -9 -24 -15 -27 -38 -23 -56 11 -87 -42
-38 -64 41 -19 72 -4 96 47 70 143 -76 282 -225 215z"/>
<path d="M5656 4135 c-13 -19 -22 -55 -25 -100 l-6 -70 -47 -5 c-55 -7 -82
-25 -58 -41 8 -5 24 -7 35 -3 58 17 72 16 92 -10 12 -14 23 -26 25 -26 9 0 8
89 -2 114 -6 16 -6 35 1 55 6 16 9 48 7 72 l-3 43 -19 -29z"/>
<path d="M2757 3706 c-42 -16 -63 -30 -92 -65 -24 -30 -54 -107 -55 -142 0
-30 -12 -42 -54 -56 -44 -14 -48 -37 -5 -29 64 12 73 11 84 -10 40 -80 149
-118 224 -79 54 28 81 71 81 130 0 46 -5 60 -30 89 -38 43 -83 55 -111 30 -11
-10 -19 -27 -17 -38 4 -30 42 -33 61 -5 l16 21 25 -25 c49 -49 29 -123 -46
-170 -28 -17 -84 -23 -90 -9 -1 4 -16 14 -33 22 -38 20 -75 84 -74 130 0 51
38 119 86 153 44 31 107 44 166 33 49 -9 124 -62 155 -110 24 -37 27 -50 27
-131 0 -69 -5 -99 -20 -130 -30 -62 -131 -156 -218 -204 l-79 -43 -31 29 c-43
38 -87 69 -115 77 -36 12 -41 35 -26 110 16 73 13 87 -13 70 -46 -29 -65 -81
-48 -131 7 -22 6 -22 -83 -22 -77 0 -99 -4 -144 -25 -30 -14 -67 -39 -83 -56
-27 -28 -28 -32 -13 -47 15 -15 20 -13 62 24 25 22 73 50 108 63 56 20 67 21
117 10 87 -18 135 -46 199 -115 58 -61 112 -155 112 -192 0 -10 -14 -31 -30
-47 -64 -63 -104 -162 -75 -186 13 -10 15 -9 15 8 0 57 59 142 145 207 39 30
152 66 187 60 114 -22 187 -70 232 -151 20 -36 26 -60 26 -110 0 -75 -9 -100
-51 -148 -38 -43 -100 -76 -144 -76 -81 0 -175 83 -175 153 0 43 29 96 67 122
42 28 60 30 97 13 23 -10 25 -15 20 -49 -5 -31 -3 -40 11 -45 39 -15 70 40 46
84 -15 28 -72 52 -125 52 -38 0 -52 -6 -85 -35 -21 -19 -46 -55 -56 -81 -16
-43 -16 -49 -1 -98 29 -90 105 -146 201 -146 l57 0 -7 -29 c-6 -30 17 -91 34
-91 14 0 21 42 10 61 -20 38 -10 63 38 99 44 33 77 84 103 156 9 25 20 33 66
47 72 22 109 21 195 -5 57 -18 83 -34 133 -79 84 -77 110 -132 110 -229 0 -60
-5 -85 -24 -123 -45 -90 -142 -157 -228 -157 -83 0 -161 50 -201 128 -38 74
-21 142 48 205 33 30 49 37 82 37 96 0 156 -71 133 -157 -5 -19 -13 -23 -50
-23 -40 0 -44 -2 -44 -25 0 -35 40 -54 76 -35 31 17 64 82 64 124 0 49 -39
106 -90 134 -82 44 -173 19 -238 -65 -22 -29 -28 -50 -32 -107 l-5 -71 -45 -3
c-55 -4 -71 -17 -45 -36 16 -12 22 -12 42 2 30 19 64 5 89 -36 9 -16 41 -45
70 -65 62 -41 135 -54 209 -37 51 11 138 68 156 102 15 28 28 19 53 -40 28
-66 78 -132 127 -168 47 -35 56 -62 35 -105 -9 -18 -16 -39 -16 -49 0 -9 -5
-21 -12 -28 -19 -19 -1 -26 32 -12 37 15 60 56 60 106 0 31 3 35 18 29 18 -8
68 -21 113 -30 41 -7 112 -78 149 -146 48 -91 53 -183 16 -279 -26 -66 -88
-140 -117 -140 -8 0 -8 -5 1 -15 17 -21 28 -19 65 9 38 29 90 126 100 185 8
46 11 48 52 24 33 -19 68 -13 104 16 30 24 24 31 -34 33 -26 1 -47 6 -47 11 0
5 -8 6 -18 3 -26 -9 -48 21 -55 74 -8 59 -39 123 -89 183 -22 27 -39 49 -37
51 2 1 25 12 52 24 26 12 64 37 85 56 69 62 114 71 180 37 93 -48 114 -151 43
-215 -47 -43 -126 -35 -126 13 0 33 -30 51 -50 30 -40 -39 17 -100 99 -107 61
-5 111 23 138 78 36 71 18 151 -48 210 -32 29 -47 35 -97 38 -58 4 -59 5 -52
31 4 14 9 63 12 108 4 71 2 88 -17 127 -46 90 -149 156 -245 156 -25 0 -37 5
-41 18 -3 9 -10 26 -16 38 -9 19 -6 128 4 179 21 100 164 236 264 251 170 25
334 -102 334 -259 0 -133 -160 -258 -262 -204 -60 31 -118 100 -118 141 0 8 9
35 19 60 22 50 60 76 113 76 48 0 62 -13 55 -47 -8 -40 5 -57 37 -49 30 7 43
44 27 75 -16 29 -83 61 -129 61 -79 0 -152 -82 -152 -172 0 -26 5 -50 10 -53
6 -4 8 -10 6 -14 -9 -13 55 -81 95 -101 24 -13 58 -20 94 -20 l55 0 0 -44 c0
-42 18 -76 41 -76 12 0 12 57 -1 65 -12 8 -13 65 -1 65 4 0 29 18 55 41 43 38
79 97 88 144 6 34 110 71 174 62 151 -20 257 -94 313 -218 28 -61 28 -168 0
-225 -46 -97 -143 -164 -234 -164 -158 0 -267 167 -190 291 58 91 152 104 228
31 22 -21 27 -34 27 -73 0 -54 -10 -64 -57 -60 -40 3 -54 -21 -28 -49 62 -69
153 65 114 167 -33 85 -146 127 -229 84 -80 -42 -109 -85 -118 -178 l-7 -68
-50 -5 c-35 -4 -51 -10 -53 -21 -4 -24 23 -30 56 -13 38 18 50 13 95 -41 108
-128 276 -139 400 -25 56 51 67 58 67 39 0 -45 95 -188 146 -219 46 -29 57
-52 42 -87 -7 -15 -15 -30 -19 -33 -3 -3 -9 -22 -13 -43 -7 -37 -6 -38 16 -32
41 12 68 52 68 101 0 41 11 57 25 34 10 -17 35 -11 35 8 0 11 -21 27 -59 45
-84 41 -132 86 -169 159 -38 74 -53 151 -41 216 17 89 -21 209 -90 285 -41 45
-104 83 -175 108 -55 18 -80 21 -147 16 -44 -3 -86 -10 -93 -16 -18 -15 -31 2
-40 50 -15 86 -103 175 -199 204 -87 26 -227 12 -274 -26 -17 -14 -13 -19 -46
66 -31 81 -32 85 -14 85 24 0 163 98 211 149 73 79 101 147 100 251 0 95 -14
136 -62 191 -60 69 -185 105 -277 80 -82 -22 -155 -113 -155 -195 0 -42 -18
-62 -71 -76 -23 -7 -37 -15 -33 -21 6 -11 48 -8 92 6 16 5 22 3 22 -7 0 -49
92 -108 168 -108 130 0 200 151 111 240 -49 49 -95 51 -123 7 -16 -25 17 -57
42 -39 36 26 45 25 69 -4 36 -45 30 -77 -22 -129 -50 -51 -85 -57 -142 -27
-113 60 -112 211 3 299 34 25 45 28 113 28 65 0 82 -4 117 -27 91 -59 133
-148 120 -251 -10 -72 -41 -129 -106 -194 -48 -48 -189 -143 -213 -143 -5 0
-34 21 -65 46 -31 26 -69 51 -85 56 -15 6 -32 18 -37 28 -9 17 -8 29 8 70 10
27 12 90 3 90 -5 0 -24 -14 -41 -32 -30 -29 -32 -36 -27 -80 l6 -48 -86 0
c-139 0 -226 -52 -298 -179 -16 -29 -20 -54 -20 -136 0 -94 2 -103 31 -150 41
-66 103 -105 186 -114 115 -14 188 21 234 110 58 115 9 227 -116 263 -49 15
-59 15 -101 1 -53 -18 -86 -48 -98 -92 -11 -38 10 -93 37 -93 40 0 59 53 22
65 -29 9 -25 40 9 64 39 28 123 29 168 1 75 -45 85 -159 20 -228 -59 -64 -149
-78 -233 -38 -156 75 -174 270 -36 403 72 70 113 88 207 88 64 -1 89 -5 128
-25 71 -35 148 -118 192 -205 l39 -75 -35 -38 c-47 -50 -67 -83 -90 -150 -21
-64 -25 -175 -8 -236 10 -35 9 -41 -8 -53 -10 -7 -27 -21 -38 -30 -12 -10 -43
-19 -76 -21 -53 -4 -59 -2 -94 29 -27 26 -38 44 -42 76 -5 39 -2 46 30 78 49
49 101 47 108 -5 6 -36 43 -35 47 2 3 22 -4 32 -37 52 -47 30 -59 31 -103 10
-46 -22 -70 -59 -76 -114 -8 -89 47 -156 143 -170 33 -4 39 -9 37 -25 -14 -79
-13 -97 7 -139 18 -39 81 -100 81 -79 0 4 4 2 9 -6 10 -15 81 -19 143 -7 63
12 97 81 68 137 -13 23 -33 24 -54 3 -22 -22 -20 -31 9 -38 33 -8 32 -19 -7
-51 -29 -24 -38 -27 -91 -23 -53 4 -63 8 -93 41 -42 45 -50 79 -35 136 13 50
49 93 95 116 33 17 132 20 141 5 4 -6 10 -8 14 -5 14 8 98 -73 110 -107 7 -18
17 -41 22 -50 36 -68 -25 -220 -112 -283 -177 -127 -433 -25 -509 203 -23 66
-24 93 -9 159 10 42 8 58 -11 122 -34 115 -106 198 -216 248 -50 23 -73 27
-149 27 -49 1 -106 -3 -126 -7 l-37 -9 -11 54 c-19 88 -72 148 -171 197 -64
32 -185 32 -255 0 -27 -13 -54 -23 -58 -23 -5 -1 -17 24 -28 54 -35 97 -37 91
31 129 74 40 182 138 216 196 82 141 66 290 -41 387 -64 58 -189 84 -268 54z"/>
<path d="M5666 3548 c-3 -13 -6 -35 -6 -49 0 -32 -13 -44 -59 -56 -19 -5 -36
-14 -38 -20 -7 -19 28 -24 59 -9 16 8 34 13 41 10 9 -3 13 18 15 71 3 76 -1
93 -12 53z"/>
<path d="M1820 3409 c14 -11 41 -35 61 -52 72 -65 73 -66 65 -32 -13 53 -78
105 -128 105 l-23 -1 25 -20z"/>
<path d="M5594 3326 c-34 -34 -36 -40 -31 -80 l6 -44 -92 -4 c-106 -4 -163
-26 -222 -86 -142 -146 -115 -401 50 -472 140 -61 269 -15 324 113 26 60 26
74 1 131 -26 61 -63 92 -126 107 -70 16 -117 5 -165 -38 -32 -29 -39 -42 -39
-72 1 -49 22 -75 54 -67 33 8 37 55 6 63 -35 9 -22 45 25 69 35 18 108 18 145
-1 50 -26 70 -61 70 -123 0 -69 -34 -124 -94 -153 -136 -65 -306 48 -306 204
0 142 135 284 280 295 50 4 108 -10 181 -42 27 -12 16 31 -15 55 -24 19 -26
26 -21 58 3 20 7 45 8 56 1 11 6 26 11 33 5 8 4 18 -2 24 -8 8 -22 0 -48 -26z"/>
<path d="M2370 3003 c-8 -3 -26 -10 -39 -15 -19 -7 -21 -11 -11 -23 7 -9 21
-13 31 -10 36 12 97 7 132 -10 52 -24 81 -78 74 -137 -4 -32 -2 -50 8 -58 16
-13 20 -7 29 42 16 86 -32 165 -120 197 -55 21 -77 24 -104 14z"/>
<path d="M5505 2571 c-46 -19 -60 -49 -60 -128 l0 -75 43 -39 c33 -29 53 -39
85 -41 l42 -3 -3 -70 c-3 -62 0 -75 24 -112 33 -50 46 -48 32 4 -17 62 -21
134 -9 146 6 6 11 31 11 56 0 35 -3 42 -12 33 -7 -7 -36 -12 -66 -12 -48 0
-58 4 -88 34 -29 29 -34 41 -34 79 0 36 6 51 29 76 43 45 105 39 106 -11 0
-16 7 -24 21 -26 50 -7 30 68 -22 88 -30 12 -71 12 -99 1z"/>
<path d="M3593 1939 c-70 -9 -89 -17 -76 -30 8 -8 17 -8 31 0 33 18 87 13 144
-12 100 -45 151 -119 154 -225 1 -66 9 -86 24 -62 24 38 5 148 -37 215 -47 75
-154 126 -240 114z"/>
<path d="M5055 1928 c-22 -6 -43 -16 -47 -22 -4 -6 -8 -7 -8 -2 0 12 -52 -43
-74 -77 -9 -15 -20 -49 -23 -75 -6 -57 -24 -85 -55 -86 -49 -3 -68 -36 -20
-36 15 0 36 7 46 15 25 19 36 19 36 1 0 -23 51 -78 87 -92 48 -20 132 -18 167
5 44 29 66 70 66 124 0 40 -5 53 -32 83 -21 21 -44 36 -62 38 -33 3 -66 -20
-66 -46 0 -24 37 -24 63 -1 18 17 20 17 43 -12 25 -31 34 -105 13 -105 -6 0
-9 -6 -7 -12 5 -16 -35 -55 -50 -50 -7 2 -12 0 -12 -5 0 -4 -20 -8 -45 -9 -25
0 -45 2 -45 6 0 4 -9 10 -19 13 -35 9 -81 85 -81 133 0 56 12 85 55 133 39 43
114 75 157 67 99 -18 167 -65 209 -147 27 -54 24 -161 -8 -229 -37 -80 -148
-178 -269 -240 -30 -16 -31 -16 -75 23 -24 22 -63 48 -86 59 -24 10 -47 27
-53 38 -9 17 -9 25 6 68 11 31 13 92 2 92 -5 0 -23 -14 -40 -31 -28 -28 -30
-34 -25 -79 l6 -49 -91 0 c-78 0 -97 -4 -142 -27 -61 -31 -89 -55 -126 -109
-35 -52 -58 -148 -40 -170 17 -20 30 -10 30 24 0 15 12 50 26 77 99 188 321
231 478 93 56 -49 110 -127 130 -187 l18 -52 -46 -50 c-24 -28 -50 -67 -57
-88 -6 -20 -17 -43 -23 -51 -6 -8 -11 -55 -10 -115 0 -79 4 -110 20 -141 19
-39 20 -39 69 -36 118 6 228 -92 239 -213 3 -38 12 -56 28 -56 16 0 3 107 -18
150 -41 86 -120 141 -214 149 l-65 6 -18 68 c-18 67 -18 70 2 148 24 94 64
156 136 211 123 93 271 88 374 -14 113 -112 114 -250 3 -350 -74 -67 -179 -62
-246 12 -44 49 -52 80 -36 133 16 55 62 97 107 97 56 0 73 -14 66 -56 -6 -34
5 -53 29 -54 16 0 38 34 38 61 0 42 -62 81 -129 82 -66 1 -113 -31 -142 -97
-52 -122 39 -252 185 -263 l61 -5 0 -44 c0 -53 20 -78 40 -50 12 16 12 22 -2
42 -19 30 -11 67 21 87 61 40 108 105 121 166 4 21 14 35 26 38 12 3 19 14 19
28 0 18 -4 22 -19 18 -15 -4 -20 3 -26 34 -15 82 -81 161 -170 204 -82 39
-186 41 -269 4 -68 -30 -66 -30 -66 -7 0 17 -17 60 -41 104 -13 25 -13 26 24
44 103 52 257 192 257 234 0 5 6 10 13 10 9 0 12 -18 9 -70 -7 -112 41 -193
142 -241 68 -32 146 -40 146 -14 0 10 -10 15 -32 15 -45 0 -126 40 -165 80
-42 43 -56 88 -51 165 3 49 10 70 31 99 50 65 132 92 187 61 34 -20 39 -19 32
8 -8 31 -20 37 -81 37 -67 0 -136 -32 -165 -77 -12 -18 -23 -33 -26 -33 -3 0
-5 51 -5 113 0 108 -1 115 -29 157 -42 64 -84 98 -142 115 -59 17 -110 18
-169 3z"/>
<path d="M3655 1780 c10 -11 20 -20 23 -20 3 0 -3 9 -13 20 -10 11 -20 20 -23
20 -3 0 3 -9 13 -20z"/>
<path d="M3993 1643 c-13 -2 -23 -9 -23 -14 0 -6 -4 -8 -8 -5 -5 3 -22 -8 -37
-24 -24 -25 -26 -32 -15 -45 13 -15 15 -15 29 3 23 30 87 62 122 62 45 0 98
-29 121 -64 29 -47 21 -136 -16 -174 -22 -24 -24 -31 -13 -40 30 -25 87 66 87
137 -1 50 -39 122 -79 148 -33 23 -102 29 -168 16z"/>
<path d="M5568 1389 c-45 -26 -2 -79 64 -79 32 0 38 3 38 21 0 18 -4 20 -25
15 -20 -5 -25 -3 -25 12 0 17 -18 42 -29 42 -4 0 -14 -5 -23 -11z"/>
<path d="M4633 1219 c-53 -16 -93 -64 -93 -110 0 -59 14 -79 47 -70 35 9 43
45 14 61 -28 15 -26 34 5 59 56 44 151 33 204 -24 32 -34 38 -109 14 -160 -19
-40 -85 -95 -116 -95 -22 0 -23 -13 -4 -29 20 -17 72 7 118 54 33 35 58 98 58
148 0 27 -21 85 -38 103 -48 54 -144 83 -209 63z"/>
<path d="M4779 786 c7 -8 23 -17 36 -20 14 -4 25 -12 25 -20 0 -17 34 -48 43
-39 17 16 5 53 -22 72 -34 25 -101 30 -82 7z"/>
<path d="M5639 544 c-14 -29 -19 -61 -18 -92 l3 -47 -44 -3 c-25 -2 -53 -11
-63 -20 -18 -16 -18 -17 5 -23 12 -3 31 -2 40 3 32 16 67 9 84 -17 9 -14 19
-25 23 -25 4 0 4 30 0 68 -4 37 -5 97 -2 135 3 37 3 67 -1 67 -4 0 -16 -21
-27 -46z"/>
</g>
</svg>
